<svg width="24" height="24" viewBox="0 0 24 24" fill="none" xmlns="http://www.w3.org/2000/svg">
<path fill-rule="evenodd" clip-rule="evenodd" d="M8.38889 2C8.84913 2 9.22222 2.3731 9.22222 2.83333V4.22222H14.7778V2.83333C14.7778 2.3731 15.1509 2 15.6111 2C16.0713 2 16.4444 2.3731 16.4444 2.83333V4.22222H18.9444C20.632 4.22222 22 5.59024 22 7.27778V18.9444C22 20.632 20.632 22 18.9444 22H5.05556C3.36802 22 2 20.632 2 18.9444V7.27778C2 5.59024 3.36802 4.22222 5.05556 4.22222H7.55556V2.83333C7.55556 2.3731 7.92865 2 8.38889 2ZM7.55556 5.88889H5.05556C4.28849 5.88889 3.66667 6.51072 3.66667 7.27778V9.77778H20.3333V7.27778C20.3333 6.51072 19.7115 5.88889 18.9444 5.88889H16.4444V6.72222C16.4444 7.18246 16.0713 7.55556 15.6111 7.55556C15.1509 7.55556 14.7778 7.18246 14.7778 6.72222V5.88889H9.22222V6.72222C9.22222 7.18246 8.84913 7.55556 8.38889 7.55556C7.92865 7.55556 7.55556 7.18246 7.55556 6.72222V5.88889ZM20.3333 11.4444H3.66667V18.9444C3.66667 19.7115 4.28849 20.3333 5.05556 20.3333H18.9444C19.7115 20.3333 20.3333 19.7115 20.3333 18.9444V11.4444Z" fill="black"/>
</svg>
