<svg width="37" height="9" viewBox="0 0 37 9" fill="none" xmlns="http://www.w3.org/2000/svg">
<path d="M7.69673 8.83154V5.16618H1.76309V8.83154H0V0.325439H1.76309V3.95471H7.69673V0.325439H9.45981V8.83154H7.69673Z" fill="#FFCB05"/>
<path d="M21.7784 8.83154V6.54262C21.7784 5.76934 21.4846 5.51158 20.7474 5.51158H15.8448V8.83154H14.0972V0.325439H20.7474C22.9847 0.325439 23.4745 0.825495 23.4745 2.35659V3.54229C23.4745 4.41868 23.0878 4.81563 22.6136 4.95997C23.0621 5.06308 23.526 5.44972 23.526 6.37766V8.83669H21.7784V8.83154ZM21.7681 2.68137C21.7681 1.84623 21.5258 1.53691 20.3246 1.53691H15.8448V4.40837H20.8402C21.5361 4.40837 21.7681 4.11452 21.7681 3.42888V2.68137Z" fill="#FFCB05"/>
<path d="M27.2377 8.83154V7.62006H33.9034C34.7282 7.62006 34.9602 7.3623 34.9602 6.69212V5.98586C34.9602 5.44456 34.6509 5.16103 34.022 5.16103H29.2482C27.8718 5.16103 27.1655 4.5424 27.1655 3.54229V2.15038C27.1655 0.825495 27.6295 0.325439 29.5472 0.325439H36.0737V1.53691H29.8978C29.0472 1.53691 28.8152 1.80498 28.8152 2.46485V3.14534C28.8152 3.68664 29.1245 3.97017 29.7792 3.97017H34.5169C35.9603 3.97017 36.615 4.61457 36.615 5.71779V6.99113C36.615 8.29024 36.0634 8.83154 34.3004 8.83154H27.248H27.2377Z" fill="#FFCB05"/>
</svg>
