<svg width="44" height="9" viewBox="0 0 44 9" fill="none" xmlns="http://www.w3.org/2000/svg">
<path d="M9.80522 8.83154V2.57827L6.50071 8.83154H4.91806L1.60842 2.57827V8.83154H0V0.325439H1.97961L5.76352 7.10454L9.57323 0.325439H11.4239V8.83154H9.80522Z" fill="#FFCB05"/>
<path d="M15.4036 8.83154V0.325439H17.1512V8.83154H15.4036Z" fill="#FFCB05"/>
<path d="M28.6987 8.83154L22.8063 2.62982V8.83154H21.136V0.325439H22.9867L28.7502 6.6715V0.325439H30.436V8.83154H28.6987Z" fill="#FFCB05"/>
<path d="M33.9667 8.83154V7.62006H40.6324C41.4572 7.62006 41.6892 7.3623 41.6892 6.69212V5.98586C41.6892 5.44456 41.3799 5.16103 40.751 5.16103H35.9772C34.6008 5.16103 33.8945 4.5424 33.8945 3.54229V2.15038C33.8945 0.825495 34.3585 0.325439 36.2762 0.325439H42.8027V1.53691H36.6268C35.7762 1.53691 35.5442 1.80498 35.5442 2.46485V3.14534C35.5442 3.68664 35.8535 3.97017 36.5082 3.97017H41.2458C42.6893 3.97017 43.344 4.61457 43.344 5.71779V6.99113C43.344 8.29024 42.7924 8.83154 41.0293 8.83154H33.977H33.9667Z" fill="#FFCB05"/>
</svg>
