<svg width="33" height="32" viewBox="0 0 33 32" fill="none" xmlns="http://www.w3.org/2000/svg">
<path d="M6.98054 27.0801C7.94707 27.6449 9.07382 27.8729 10.1839 27.7281C11.294 27.5833 12.3246 27.074 13.1139 26.2801L20.7939 18.6001C21.0339 18.6001 21.2605 18.6668 21.5005 18.6668C23.0828 18.6668 24.6295 18.1976 25.9451 17.3185C27.2607 16.4395 28.2861 15.19 28.8916 13.7282C29.4971 12.2664 29.6555 10.6579 29.3468 9.10603C29.0381 7.55418 28.2762 6.12872 27.1574 5.0099C26.0386 3.89108 24.6131 3.12915 23.0613 2.82047C21.5094 2.51179 19.9009 2.67021 18.4391 3.27572C16.9773 3.88122 15.7278 4.9066 14.8488 6.22219C13.9697 7.53778 13.5005 9.0845 13.5005 10.6668C13.5005 10.9068 13.5005 11.1468 13.5672 11.3734L5.88721 19.0534C5.09933 19.8463 4.59416 20.8764 4.44959 21.9847C4.30502 23.0931 4.52907 24.2183 5.08721 25.1868L1.88721 28.3868L3.76721 30.2668L6.98054 27.0801ZM21.5005 5.33342C22.915 5.33342 24.2716 5.89532 25.2718 6.89552C26.272 7.89571 26.8339 9.25226 26.8339 10.6668C26.8339 12.0812 26.272 13.4378 25.2718 14.438C24.2716 15.4382 22.915 16.0001 21.5005 16.0001C21.1738 16.0015 20.8477 15.9703 20.5272 15.9068C19.4666 15.7087 18.4909 15.1936 17.7292 14.4294C16.9674 13.6653 16.4553 12.688 16.2605 11.6268C16.1974 11.3107 16.1661 10.9891 16.1672 10.6668C16.1672 9.25226 16.7291 7.89571 17.7293 6.89552C18.7295 5.89532 20.0861 5.33342 21.5005 5.33342ZM7.78054 20.9468L14.4472 14.2801C14.5924 14.5468 14.7527 14.805 14.9272 15.0534C14.9272 15.1334 15.0339 15.2268 15.0872 15.3201C15.5695 15.9777 16.1496 16.5578 16.8072 17.0401L16.9139 17.1068C17.2072 17.3184 17.5146 17.51 17.8339 17.6801L11.1672 24.3468C10.7093 24.8047 10.0882 25.062 9.44054 25.062C8.79291 25.062 8.17181 24.8047 7.71387 24.3468C7.25593 23.8888 6.99866 23.2677 6.99866 22.6201C6.99866 21.9725 7.25593 21.3514 7.71387 20.8934L7.78054 20.9468Z" fill="#FFCB05"/>
</svg>
