<svg width="68" height="61" viewBox="0 0 68 61" fill="none" xmlns="http://www.w3.org/2000/svg">
<g filter="url(#filter0_d_1109_51109)">
<path d="M44.8331 22.1V20C44.8331 18.6739 44.3064 17.4021 43.3687 16.4645C42.431 15.5268 41.1592 15 39.8331 15H27.8331C26.5071 15 25.2353 15.5268 24.2976 16.4645C23.3599 17.4021 22.8331 18.6739 22.8331 20V22.1C21.7028 22.3295 20.6867 22.9427 19.9568 23.8357C19.2269 24.7288 18.8281 25.8466 18.8281 27C18.8281 28.1534 19.2269 29.2712 19.9568 30.1643C20.6867 31.0573 21.7028 31.6705 22.8331 31.9V36C22.8331 36.5304 23.0439 37.0391 23.4189 37.4142C23.794 37.7893 24.3027 38 24.8331 38H42.8331C43.3636 38 43.8723 37.7893 44.2473 37.4142C44.6224 37.0391 44.8331 36.5304 44.8331 36V31.9C45.9634 31.6705 46.9796 31.0573 47.7095 30.1643C48.4394 29.2712 48.8381 28.1534 48.8381 27C48.8381 25.8466 48.4394 24.7288 47.7095 23.8357C46.9796 22.9427 45.9634 22.3295 44.8331 22.1ZM27.8331 17H39.8331C40.6288 17 41.3918 17.3161 41.9545 17.8787C42.5171 18.4413 42.8331 19.2044 42.8331 20V22.1C41.7045 22.3321 40.6904 22.9461 39.9618 23.8387C39.2332 24.7313 38.8345 25.8478 38.8331 27H28.8331C28.8317 25.8478 28.4331 24.7313 27.7045 23.8387C26.9758 22.9461 25.9617 22.3321 24.8331 22.1V20C24.8331 19.2044 25.1492 18.4413 25.7118 17.8787C26.2744 17.3161 27.0375 17 27.8331 17ZM43.8819 30H43.8331C43.5679 30 43.3136 30.1054 43.126 30.2929C42.9385 30.4804 42.8331 30.7348 42.8331 31V36H24.8331V31C24.8331 30.7348 24.7278 30.4804 24.5402 30.2929C24.3527 30.1054 24.0984 30 23.8331 30H23.7844C23.1932 29.9904 22.6181 29.8063 22.1312 29.4709C21.6443 29.1355 21.2674 28.6636 21.0477 28.1147C20.8281 27.5657 20.7756 26.9641 20.8968 26.3854C21.018 25.8067 21.3075 25.2767 21.729 24.862C22.1504 24.4474 22.685 24.1664 23.2656 24.0546C23.8461 23.9427 24.4468 24.0049 24.9922 24.2333C25.5375 24.4618 26.0032 24.8462 26.3307 25.3385C26.6583 25.8307 26.8331 26.4087 26.8331 27V32C26.8331 32.2652 26.9385 32.5196 27.126 32.7071C27.3136 32.8946 27.5679 33 27.8331 33C28.0984 33 28.3527 32.8946 28.5402 32.7071C28.7278 32.5196 28.8331 32.2652 28.8331 32V29H38.8331V32C38.8331 32.2652 38.9385 32.5196 39.126 32.7071C39.3136 32.8946 39.5679 33 39.8331 33C40.0984 33 40.3527 32.8946 40.5402 32.7071C40.7278 32.5196 40.8331 32.2652 40.8331 32V27C40.8332 26.4087 41.008 25.8307 41.3355 25.3385C41.6631 24.8462 42.1288 24.4618 42.6741 24.2333C43.2195 24.0049 43.8201 23.9427 44.4007 24.0546C44.9813 24.1664 45.5159 24.4474 45.9373 24.862C46.3587 25.2767 46.6482 25.8067 46.7694 26.3854C46.8906 26.9641 46.8381 27.5657 46.6185 28.1147C46.3989 28.6636 46.022 29.1355 45.5351 29.4709C45.0482 29.8063 44.4731 29.9904 43.8819 30Z" fill="#FFCB05"/>
</g>
<defs>
<filter id="filter0_d_1109_51109" x="0.528126" y="0.700001" width="66.6103" height="59.6" filterUnits="userSpaceOnUse" color-interpolation-filters="sRGB">
<feFlood flood-opacity="0" result="BackgroundImageFix"/>
<feColorMatrix in="SourceAlpha" type="matrix" values="0 0 0 0 0 0 0 0 0 0 0 0 0 0 0 0 0 0 127 0" result="hardAlpha"/>
<feOffset dy="4"/>
<feGaussianBlur stdDeviation="9.15"/>
<feComposite in2="hardAlpha" operator="out"/>
<feColorMatrix type="matrix" values="0 0 0 0 1 0 0 0 0 1 0 0 0 0 1 0 0 0 0.25 0"/>
<feBlend mode="normal" in2="BackgroundImageFix" result="effect1_dropShadow_1109_51109"/>
<feBlend mode="normal" in="SourceGraphic" in2="effect1_dropShadow_1109_51109" result="shape"/>
</filter>
</defs>
</svg>
