<svg width="27" height="34" viewBox="0 0 27 34" fill="none" xmlns="http://www.w3.org/2000/svg">
<path d="M4 3.99997L7 0.999969H24C25.1046 0.999969 26 1.8954 26 2.99997V8.99997C26 10.1045 25.1046 11 24 11H3C1.34315 11 0 9.65682 0 7.99997L4 3.99997Z" fill="#E6FFFE"/>
<path d="M23.7778 33.6444H2.97222C2.18394 33.6444 1.42794 33.3313 0.870544 32.7739C0.313144 32.2165 0 31.4605 0 30.6722V7.24517L6.88961 0.35556H23.7778C24.5661 0.35556 25.3221 0.668704 25.8795 1.2261C26.4369 1.7835 26.75 2.5395 26.75 3.32778V30.6722C26.75 31.4605 26.4369 32.2165 25.8795 32.7739C25.3221 33.3313 24.5661 33.6444 23.7778 33.6444ZM1.18889 7.73261V30.6722C1.18889 31.1452 1.37678 31.5988 1.71121 31.9332C2.04565 32.2677 2.49925 32.4556 2.97222 32.4556H23.7778C24.2507 32.4556 24.7043 32.2677 25.0388 31.9332C25.3732 31.5988 25.5611 31.1452 25.5611 30.6722V3.32778C25.5611 2.85481 25.3732 2.40122 25.0388 2.06678C24.7043 1.73234 24.2507 1.54445 23.7778 1.54445H7.37706L1.18889 7.73261Z" fill="#23B4E3"/>
<path d="M4.90427 8.08331H1.189V6.89442H4.90427C5.64733 6.89442 6.539 6.29997 6.539 5.50936V1.54442H7.72788V5.50936C7.72788 7.0252 6.24177 8.08331 4.90427 8.08331Z" fill="#23B4E3"/>
<path d="M26.1553 10.4611H0.594238V11.65H26.1553V10.4611Z" fill="#23B4E3"/>
<path d="M7.90024 29.6497C7.64594 29.6526 7.39397 29.601 7.16123 29.4985C6.92849 29.396 6.72038 29.2448 6.55085 29.0553C6.25119 28.6639 6.10935 28.1743 6.15338 27.6834C6.19741 27.1924 6.42411 26.7359 6.78863 26.4041C7.34146 25.8096 8.89891 25.1676 10.6941 24.6207C11.0904 23.5983 11.5085 22.342 11.9484 20.8519C11.4544 19.6038 11.1731 18.2817 11.1162 16.9405C11.033 15.3355 11.889 14.4201 12.7747 14.3428C13.4761 14.2833 14.3024 14.7827 14.457 16.0132C14.5191 16.579 14.4645 17.1516 14.2965 17.6954L14.0706 18.4742C13.8506 19.2469 13.6307 20.0197 13.4048 20.7747C13.8624 21.7914 14.485 22.7254 15.2476 23.5388C16.0772 23.3788 16.9178 23.2814 17.7621 23.2476C19.4919 23.2476 20.1399 24.0322 20.4014 24.4959C20.5525 24.7719 20.6252 25.084 20.6116 25.3983C20.5979 25.7127 20.4985 26.0173 20.3241 26.2792C20.132 26.5551 19.8684 26.7734 19.5615 26.9106C19.2546 27.0478 18.9161 27.0988 18.5824 27.0579C17.1547 26.7555 15.8454 26.0452 14.8136 25.0131C13.8209 25.2152 12.745 25.4767 11.7344 25.7621C11.0984 27.3373 10.4682 28.4906 9.85002 28.9245C9.29142 29.3633 8.60981 29.6168 7.90024 29.6497ZM10.0284 26.2852C9.22133 26.5024 8.46151 26.8672 7.7873 27.3611C7.49007 27.6821 7.44846 28.0269 7.57924 28.1814C7.71002 28.336 8.23907 28.3836 9.05941 27.8069C9.48979 27.3766 9.82054 26.8572 10.0284 26.2852ZM16.5672 24.7099C17.1964 25.2069 17.9369 25.5435 18.7251 25.6907C18.8134 25.7087 18.905 25.7022 18.9899 25.6718C19.0748 25.6414 19.1497 25.5883 19.2066 25.5183C19.2413 25.462 19.2597 25.3972 19.2597 25.3311C19.2597 25.2649 19.2413 25.2001 19.2066 25.1438C19.1412 25.019 18.8499 24.6267 17.768 24.6207C17.3679 24.6314 16.9688 24.6671 16.5732 24.7277L16.5672 24.7099ZM12.8341 22.6293C12.6558 23.1703 12.4834 23.6934 12.311 24.1927C12.7806 24.0679 13.2502 23.9549 13.7139 23.8539C13.3957 23.4656 13.1038 23.0565 12.8401 22.6293H12.8341ZM12.8876 15.7278C12.7509 15.7278 12.4418 16.0964 12.4775 16.9167C12.5034 17.4395 12.565 17.9598 12.6617 18.4742C12.6915 18.3612 12.7271 18.2542 12.7568 18.1413L12.9827 17.3566C13.0978 16.9919 13.1382 16.6078 13.1016 16.2272C13.0541 15.8467 12.9233 15.7278 12.8936 15.7278H12.8876Z" fill="black"/>
<path d="M13.8451 5.96711C13.7241 6.17301 13.5467 6.34006 13.3339 6.44861C13.0683 6.58022 12.7741 6.64355 12.4779 6.63289H11.8478V8.13089H10.8313V3.96977H12.4779C12.7687 3.96214 13.0575 4.0211 13.322 4.14216C13.5362 4.24818 13.7156 4.41317 13.8392 4.61772C13.9506 4.8273 14.0088 5.06102 14.0088 5.29836C14.0088 5.5357 13.9506 5.76941 13.8392 5.979L13.8451 5.96711ZM12.8346 5.70555C12.8842 5.65478 12.9225 5.59413 12.9471 5.52755C12.9716 5.46098 12.9819 5.38998 12.9772 5.31916C12.9812 5.24842 12.9706 5.17762 12.946 5.11115C12.9215 5.04469 12.8836 4.98397 12.8346 4.93277C12.7748 4.88261 12.7057 4.84471 12.6312 4.82125C12.5567 4.79779 12.4784 4.78923 12.4006 4.79605H11.8478V5.82444H12.4006C12.5553 5.8432 12.7111 5.80051 12.8346 5.70555Z" fill="black"/>
<path d="M17.2568 4.2194C17.5755 4.38756 17.8395 4.6433 18.0177 4.95651C18.2053 5.28781 18.2998 5.6637 18.2912 6.04434C18.2998 6.42498 18.2053 6.80087 18.0177 7.13217C17.843 7.45016 17.5755 7.70731 17.2509 7.86929C16.8964 8.05122 16.5019 8.14115 16.1036 8.13084H14.564V3.96973H16.1274C16.5184 3.96204 16.9055 4.04762 17.2568 4.2194ZM16.9418 6.93601C17.0536 6.81733 17.1397 6.67694 17.195 6.52354C17.2502 6.37015 17.2733 6.20703 17.2628 6.04434C17.2795 5.88018 17.2595 5.71436 17.2042 5.55891C17.1488 5.40345 17.0596 5.26226 16.9429 5.14558C16.8262 5.0289 16.6851 4.93967 16.5296 4.88434C16.3741 4.82902 16.2083 4.809 16.0442 4.82573H15.5627V7.25106H16.0442C16.2074 7.26317 16.3714 7.24144 16.5259 7.18723C16.6803 7.13301 16.8219 7.04749 16.9418 6.93601Z" fill="black"/>
<path d="M21.5785 3.9579V4.77229H19.8784V5.65207H21.1505V6.44268H19.8784V8.1309H18.8619V3.96979L21.5785 3.9579Z" fill="black"/>
</svg>
