<svg width="180" height="181" viewBox="0 0 180 181" fill="none" xmlns="http://www.w3.org/2000/svg">
<g style="mix-blend-mode:screen">
<path d="M138.967 124.453L139.698 123.446L128.901 116.183L128.329 116.953L138.967 124.453Z" fill="#05C960"/>
<path d="M137.901 125.992C137.901 125.992 138.099 125.756 138.257 125.479C138.434 125.223 138.612 124.966 138.612 124.966L128.053 117.367C128.053 117.367 127.914 117.565 127.776 117.762C127.638 117.96 127.5 118.157 127.5 118.157L137.901 125.973V125.992Z" fill="#05C960"/>
<path d="M136.717 127.453L137.487 126.486L127.164 118.552L126.572 119.321L136.717 127.453Z" fill="#05C960"/>
<path d="M135.533 128.894C135.533 128.894 136.382 127.986 136.342 127.946L126.276 119.696L125.625 120.427L135.533 128.874V128.894Z" fill="#05C960"/>
<path d="M134.308 130.334L135.098 129.387L125.289 120.821L124.677 121.571L134.308 130.334Z" fill="#05C960"/>
<path d="M114.769 144.584L115.894 144.091L110.249 132.367L109.361 132.742L114.769 144.584Z" fill="#05C960"/>
<path d="M113.092 145.354C113.092 145.354 113.368 145.236 113.644 145.098C113.921 144.959 114.197 144.841 114.197 144.841L108.907 132.94C108.907 132.94 108.69 133.038 108.473 133.137C108.256 133.255 108.039 133.334 108.039 133.334L113.072 145.334L113.092 145.354Z" fill="#05C960"/>
<path d="M111.355 146.025L112.5 145.571L107.585 133.512L106.697 133.867L111.355 146.025Z" fill="#05C960"/>
<path d="M109.618 146.657C109.618 146.657 110.782 146.302 110.782 146.262L106.243 134.065L105.335 134.361L109.618 146.657Z" fill="#05C960"/>
<path d="M107.881 147.268L109.026 146.854L104.881 134.518L103.993 134.834L107.881 147.268Z" fill="#05C960"/>
<path d="M106.085 147.762L107.269 147.426L103.519 134.972L102.592 135.209L106.085 147.762Z" fill="#05C960"/>
<path d="M104.31 148.236C104.31 148.236 104.606 148.177 104.902 148.118C105.198 148.039 105.494 147.94 105.494 147.94L102.139 135.368C102.139 135.368 101.902 135.447 101.685 135.506C101.448 135.545 101.211 135.605 101.211 135.605L104.31 148.256V148.236Z" fill="#05C960"/>
<path d="M95.1316 149.736C95.1316 149.736 95.4474 149.736 95.7632 149.696C96.079 149.696 96.3751 149.637 96.3751 149.637L95.0132 136.69C95.0132 136.69 94.7764 136.729 94.5198 136.729C94.2829 136.729 94.0264 136.749 94.0264 136.749L95.1316 149.716V149.736Z" fill="#05C960"/>
<path d="M93.2367 149.893L94.4801 149.775L93.5327 136.788L92.5459 136.887L93.2367 149.893Z" fill="#05C960"/>
<path d="M91.3419 149.933L92.6051 149.913L92.0525 136.906H91.0459L91.3419 149.933Z" fill="#05C960"/>
<path d="M89.4473 149.953C89.4473 149.953 89.763 149.992 90.0788 149.953C90.3946 149.953 90.7104 149.933 90.7104 149.933L90.5525 136.907C90.5525 136.907 90.2959 136.907 90.0591 136.926C89.8025 136.926 89.5657 136.926 89.5657 136.926L89.467 149.953H89.4473Z" fill="#05C960"/>
<path d="M78.2373 148.828L79.4413 149.045L81.6913 136.216L80.7439 136.058L78.2373 148.828Z" fill="#05C960"/>
<path d="M69.335 146.381L70.4994 146.736L74.7231 134.42L73.7955 134.144L69.335 146.381Z" fill="#05C960"/>
<path d="M67.6182 145.67L68.7432 146.124L73.3616 133.946L72.4734 133.591L67.6182 145.67Z" fill="#05C960"/>
<path d="M55.6973 139.217C55.6973 139.217 56.6841 139.967 56.7038 139.927L63.9472 129.111L63.1578 128.539L55.6973 139.217Z" fill="#05C960"/>
<path d="M54.1582 138.151L55.1845 138.842L62.7635 128.263L61.9542 127.711L54.1582 138.151Z" fill="#05C960"/>
<path d="M52.6973 136.966L53.6644 137.756L61.5591 127.394L60.8091 126.782L52.6973 136.966Z" fill="#05C960"/>
<path d="M51.2373 135.783L51.6912 136.197C51.9083 136.414 52.1847 136.592 52.1847 136.592L60.3952 126.487C60.3952 126.487 60.1781 126.349 60.0202 126.191C59.8426 126.033 59.6649 125.855 59.6649 125.855L51.2373 135.783Z" fill="#05C960"/>
<path d="M49.8154 134.56L50.7628 135.369L59.2891 125.52L58.5391 124.908L49.8154 134.56Z" fill="#05C960"/>
<path d="M48.4541 133.256L49.3423 134.125L58.1646 124.552L57.4738 123.881L48.4541 133.256Z" fill="#05C960"/>
<path d="M47.1123 131.954L47.5268 132.408L47.9807 132.822L57.0991 123.526L56.7439 123.191C56.586 123.013 56.4084 122.816 56.4084 122.816L47.1123 131.914V131.954Z" fill="#05C960"/>
<path d="M45.8096 130.592L46.678 131.48L56.0727 122.48L55.3819 121.77L45.8096 130.592Z" fill="#05C960"/>
<path d="M44.5654 129.172L45.3746 130.119L55.0457 121.415L54.4338 120.665L44.5654 129.172Z" fill="#05C960"/>
<path d="M43.3613 127.75C43.3613 127.75 43.539 128.006 43.7363 128.243C43.9534 128.48 44.1508 128.697 44.1508 128.697L54.0982 120.289C54.0982 120.289 53.9403 120.111 53.7626 119.934C53.6048 119.756 53.4666 119.539 53.4666 119.539L43.3613 127.75Z" fill="#05C960"/>
<path d="M42.1973 126.27L42.967 127.237L53.1709 119.145L52.5591 118.375L42.1973 126.27Z" fill="#05C960"/>
<path d="M41.0918 124.75L41.8023 125.777L52.2431 118L51.6905 117.191L41.0918 124.75Z" fill="#05C960"/>
<path d="M40.0068 123.21L40.7174 124.216L51.395 116.776C51.395 116.776 50.8029 116.006 50.8423 115.986L40.0068 123.21Z" fill="#05C960"/>
<path d="M34.0459 111.685L34.4801 112.81L46.5196 107.856L46.184 106.968L34.0459 111.685Z" fill="#05C960"/>
<path d="M33.3945 109.947C33.3945 109.947 33.4932 110.243 33.5722 110.539C33.6708 110.835 33.7893 111.112 33.7893 111.112L45.9866 106.533C45.9866 106.533 45.8682 106.316 45.809 106.098L45.6708 105.645L33.3945 109.967V109.947Z" fill="#05C960"/>
<path d="M32.7832 108.191L33.1977 109.356L45.5332 105.152L45.1977 104.263L32.7832 108.191Z" fill="#05C960"/>
<path d="M32.2891 106.414L32.6049 107.598L45.0588 103.789L44.822 102.881L32.2891 106.414Z" fill="#05C960"/>
<path d="M31.7959 104.638C31.7959 104.638 31.8354 104.934 31.934 105.23C32.0327 105.527 32.1117 105.823 32.1117 105.823L44.684 102.408C44.684 102.408 44.6051 102.171 44.5459 101.954C44.467 101.717 44.4472 101.48 44.4472 101.48L31.8156 104.619L31.7959 104.638Z" fill="#05C960"/>
<path d="M31.3818 102.823L31.6582 104.026L44.3292 101.007L44.1121 100.079L31.3818 102.823Z" fill="#05C960"/>
<path d="M31.0264 101.006L31.2237 102.23L43.9737 99.6049L43.8356 98.6575L31.0264 101.006Z" fill="#05C960"/>
<path d="M30.6914 99.1708C30.6914 99.1708 30.7506 99.4669 30.8098 99.7826L30.9282 100.394L43.7572 98.184L43.6585 97.7103C43.5993 97.4734 43.5598 97.2366 43.5598 97.2366L30.6914 99.1905V99.1708Z" fill="#05C960"/>
<path d="M30.4736 97.3158L30.6118 98.5395L43.5197 96.7435L43.4013 95.7764L30.4736 97.3158Z" fill="#05C960"/>
<path d="M30.2764 95.4612C30.2764 95.4612 30.2764 95.777 30.3158 96.0928C30.3158 96.4086 30.3948 96.7046 30.3948 96.7046L43.3422 95.3033C43.3422 95.3033 43.2829 95.0664 43.2829 94.8296V94.3362L30.2961 95.4809L30.2764 95.4612Z" fill="#05C960"/>
<path d="M30.1182 93.5862L30.2366 94.8296L43.2037 93.823L43.1248 92.8362L30.1182 93.5862Z" fill="#05C960"/>
<path d="M108.395 33.0327C108.395 33.0327 108.099 32.934 107.823 32.8156C107.527 32.7367 107.23 32.6577 107.23 32.6577L103.48 45.1314C103.48 45.1314 103.717 45.1906 103.934 45.2498C104.152 45.3288 104.388 45.4274 104.388 45.4274L108.395 33.0327Z" fill="#05C960"/>
<path d="M110.152 33.625L108.988 33.25L104.843 45.5855L105.751 45.8816L110.152 33.625Z" fill="#05C960"/>
<path d="M111.868 34.2962L110.743 33.8225L106.224 46.0396L107.092 46.4146L111.868 34.2962Z" fill="#05C960"/>
<path d="M113.586 34.9874L112.442 34.5334L107.547 46.5927C107.547 46.5927 108.455 46.9282 108.435 46.9479L113.586 34.9874Z" fill="#05C960"/>
<path d="M121.796 39.3295C121.796 39.3295 121.539 39.1519 121.283 38.994C121.026 38.8163 120.75 38.6584 120.75 38.6584L114.02 49.8097C114.02 49.8097 114.237 49.9282 114.434 50.0663C114.631 50.2045 114.829 50.3426 114.829 50.3426L121.776 39.3295H121.796Z" fill="#05C960"/>
<path d="M127.895 43.6904L126.908 42.9404L118.855 53.1641L119.625 53.7562L127.895 43.6904Z" fill="#05C960"/>
<path d="M129.316 44.9349L128.368 44.106L120 54.0928L120.75 54.7244L129.316 44.9349Z" fill="#05C960"/>
<path d="M140.329 57.6645L139.678 56.6184L128.882 63.9013L129.395 64.7302L140.329 57.6645Z" fill="#05C960"/>
<path d="M141.336 59.2436L140.665 58.1975L129.651 65.1449C129.651 65.1449 130.204 65.9344 130.184 65.9541L141.336 59.2436Z" fill="#05C960"/>
<path d="M142.263 60.8619L141.651 59.7961L130.421 66.3883L130.895 67.2369L142.263 60.8619Z" fill="#05C960"/>
<path d="M143.133 62.5003C143.133 62.5003 142.994 62.224 142.856 61.9476C142.738 61.6713 142.58 61.395 142.58 61.395L131.152 67.6318C131.152 67.6318 131.271 67.8489 131.369 68.066C131.468 68.2832 131.587 68.5003 131.587 68.5003L143.133 62.5003Z" fill="#05C960"/>
<path d="M148.678 78.1712L148.402 76.9673L135.691 79.7896C135.691 79.7896 135.948 80.7173 135.909 80.7173L148.678 78.1712Z" fill="#05C960"/>
<path d="M148.994 80.0064L148.777 78.7827L135.987 81.2103L136.165 82.1577L148.994 80.0064Z" fill="#05C960"/>
<path d="M149.27 81.8423C149.27 81.8423 149.152 80.5989 149.113 80.6186L136.244 82.6318L136.363 83.5989L149.27 81.8423Z" fill="#05C960"/>
<path d="M149.526 83.6976L149.349 82.4739L136.421 84.0923L136.579 85.0397L149.526 83.6976Z" fill="#05C960"/>
<path d="M149.664 85.5723L149.566 84.3289L136.599 85.5328L136.678 86.5196L149.664 85.5723Z" fill="#05C960"/>
<path d="M149.783 87.4475C149.783 87.4475 149.783 87.1317 149.783 86.8159C149.744 86.5001 149.724 86.2041 149.724 86.2041L136.737 87.0133C136.737 87.0133 136.757 87.2502 136.797 87.5067C136.797 87.7436 136.797 88.0002 136.797 88.0002L149.803 87.4475H149.783Z" fill="#05C960"/>
<path d="M152.152 95.2437C152.152 95.2437 152.171 94.928 152.211 94.4543C152.25 93.9806 152.349 93.349 152.309 92.7174C152.309 91.4345 152.388 90.1714 152.388 90.1714H167.388C167.388 90.1714 167.329 91.77 167.309 93.349C167.309 94.1385 167.211 94.9082 167.171 95.5003C167.132 96.0924 167.092 96.4674 167.092 96.4674L152.132 95.2635L152.152 95.2437Z" fill="#05C960"/>
<path d="M151.224 102.191C151.224 102.191 151.421 100.968 151.678 99.7439C151.816 98.5005 151.993 97.2571 151.993 97.2571L166.895 98.9544C166.895 98.9544 166.697 100.494 166.5 102.033C166.204 103.553 165.947 105.073 165.947 105.073L151.224 102.191Z" fill="#05C960"/>
<path d="M149.586 108.704C149.586 108.704 149.882 107.559 150.218 106.434C150.415 105.882 150.533 105.289 150.612 104.855C150.711 104.421 150.77 104.125 150.77 104.125L165.395 107.48C165.395 107.48 165.316 107.836 165.198 108.368C165.079 108.901 164.941 109.632 164.704 110.322C164.31 111.743 163.915 113.145 163.915 113.145L149.586 108.684V108.704Z" fill="#05C960"/>
<path d="M147.276 114.902C147.276 114.902 147.415 114.645 147.592 114.231C147.75 113.816 147.967 113.264 148.165 112.711C148.638 111.626 148.974 110.5 148.974 110.5L163.145 115.395C163.145 115.395 162.711 116.797 162.138 118.158C161.882 118.849 161.605 119.52 161.408 120.033C161.191 120.547 161.033 120.862 161.033 120.862L147.276 114.882V114.902Z" fill="#05C960"/>
<path d="M144.296 120.823C144.296 120.823 144.947 119.816 145.421 118.73C145.697 118.198 145.974 117.684 146.171 117.29C146.388 116.895 146.487 116.619 146.487 116.619L160.066 123.013C160.066 123.013 159.947 123.369 159.671 123.842C159.414 124.336 159.079 124.987 158.743 125.638C158.112 126.98 157.342 128.224 157.342 128.224L144.296 120.803V120.823Z" fill="#05C960"/>
<path d="M140.685 126.428C140.685 126.428 140.862 126.191 141.119 125.816C141.375 125.441 141.77 124.987 142.046 124.474C142.678 123.468 143.349 122.481 143.349 122.481L156.158 130.296C156.158 130.296 155.329 131.52 154.56 132.783C154.185 133.435 153.711 134.007 153.395 134.461C153.079 134.915 152.862 135.211 152.862 135.211L140.685 126.448V126.428Z" fill="#05C960"/>
<path d="M133.639 134.658C133.639 134.658 133.876 134.461 134.191 134.145C134.507 133.81 134.902 133.375 135.316 132.941C136.185 132.112 136.935 131.165 136.935 131.165L148.224 141.053C148.224 141.053 147.297 142.198 146.231 143.244C145.718 143.777 145.204 144.329 144.829 144.724C144.435 145.119 144.158 145.356 144.158 145.356L133.658 134.638L133.639 134.658Z" fill="#05C960"/>
<path d="M128.606 139.08L129.198 138.626C129.573 138.369 130.007 137.955 130.461 137.56C130.915 137.165 131.369 136.79 131.704 136.494C131.882 136.356 132.02 136.218 132.099 136.139C132.198 136.04 132.237 136.001 132.237 136.001L142.402 147.034C142.402 147.034 142.343 147.093 142.224 147.211C142.106 147.33 141.948 147.488 141.731 147.665C141.316 148.02 140.744 148.514 140.191 148.988C139.639 149.481 139.086 149.974 138.632 150.31C138.198 150.645 137.902 150.882 137.902 150.882L128.586 139.119L128.606 139.08Z" fill="#05C960"/>
<path d="M123.158 142.947C123.158 142.947 123.415 142.789 123.79 142.552C124.165 142.296 124.698 142.039 125.171 141.664C126.138 140.954 127.125 140.283 127.125 140.283L136.066 152.322C136.066 152.322 134.842 153.151 133.658 154.039C133.066 154.493 132.415 154.829 131.961 155.145C131.487 155.441 131.191 155.638 131.191 155.638L123.178 142.947H123.158Z" fill="#05C960"/>
<path d="M117.356 146.204C117.356 146.204 118.402 145.632 119.468 145.119C120.494 144.526 121.52 143.934 121.52 143.934L129.139 156.862L126.573 158.322C125.25 158.974 123.948 159.665 123.948 159.665L117.336 146.204H117.356Z" fill="#05C960"/>
<path d="M111.276 148.809C111.276 148.809 111.553 148.71 111.967 148.533C112.382 148.375 112.934 148.158 113.467 147.941C114.02 147.743 114.572 147.506 114.967 147.309L115.638 146.993L121.836 160.651C121.836 160.651 121.5 160.809 121.007 161.026C120.513 161.263 119.842 161.579 119.151 161.816C118.461 162.092 117.79 162.348 117.276 162.566C116.763 162.783 116.428 162.901 116.428 162.901L111.296 148.809H111.276Z" fill="#05C960"/>
<path d="M104.94 150.704C104.94 150.704 105.236 150.645 105.671 150.546C106.085 150.428 106.658 150.25 107.23 150.092C107.802 149.915 108.375 149.816 108.789 149.658C109.204 149.5 109.48 149.402 109.48 149.402L114.158 163.652C114.158 163.652 113.802 163.77 113.289 163.948C112.776 164.145 112.046 164.283 111.355 164.5C110.644 164.698 109.954 164.915 109.421 165.073C108.888 165.191 108.533 165.27 108.533 165.27L104.96 150.704H104.94Z" fill="#05C960"/>
<path d="M94.3225 152.342C94.3225 152.342 94.6185 152.323 95.0725 152.283C95.5264 152.244 96.1185 152.244 96.7106 152.165C97.8948 151.987 99.079 151.869 99.079 151.869L101.23 166.711C101.23 166.711 99.7698 166.869 98.2896 167.086C97.5593 167.184 96.8093 167.184 96.2567 167.244C95.7041 167.283 95.3291 167.323 95.3291 167.323L94.3027 152.362L94.3225 152.342Z" fill="#05C960"/>
<path d="M87.5329 152.46C87.5329 152.46 88.7368 152.46 89.9605 152.539C91.1645 152.48 92.3881 152.46 92.3881 152.46L92.9605 167.46C92.9605 167.46 91.4605 167.48 89.9803 167.539C88.4803 167.5 87 167.46 87 167.46L87.5526 152.46H87.5329Z" fill="#05C960"/>
<path d="M80.8621 151.869C80.8621 151.869 82.0463 151.987 83.2305 152.184C84.4344 152.283 85.6186 152.362 85.6186 152.362L84.612 167.323C84.612 167.323 83.1318 167.204 81.6515 167.086C80.191 166.869 78.7305 166.711 78.7305 166.711L80.8621 151.869Z" fill="#05C960"/>
<path d="M74.3482 150.586C74.3482 150.586 75.5127 150.823 76.6574 151.099C77.2298 151.277 77.8219 151.336 78.2561 151.415C78.6903 151.494 78.9864 151.533 78.9864 151.533L76.4009 166.316C76.4009 166.316 76.0456 166.257 75.493 166.158C74.9403 166.059 74.2101 165.961 73.4996 165.763C72.0785 165.408 70.6377 165.112 70.6377 165.112L74.3482 150.586Z" fill="#05C960"/>
<path d="M68.0529 148.592C68.0529 148.592 68.1122 148.612 68.2306 148.671C68.349 148.73 68.5266 148.789 68.7437 148.849C69.1582 148.987 69.7306 149.164 70.2832 149.362C70.8358 149.559 71.3885 149.776 71.8227 149.855C72.2569 149.974 72.5332 150.053 72.5332 150.053L68.3687 164.46C68.3687 164.46 68.0135 164.362 67.4806 164.224C66.9477 164.105 66.2569 163.829 65.5661 163.592C64.8753 163.355 64.1648 163.118 63.6516 162.96C63.395 162.882 63.1779 162.803 63.02 162.743C62.8621 162.684 62.7832 162.645 62.7832 162.645L68.0332 148.592H68.0529Z" fill="#05C960"/>
<path d="M61.9937 145.927C61.9937 145.927 62.2503 146.066 62.6451 146.283C63.0398 146.5 63.5924 146.697 64.1253 146.954C64.6582 147.21 65.1911 147.447 65.6056 147.645C66.0201 147.802 66.2964 147.901 66.2964 147.901L60.6122 161.776C60.6122 161.776 60.2766 161.638 59.7635 161.441C59.2701 161.204 58.599 160.908 57.928 160.592C57.2569 160.276 56.5661 160.02 56.0924 159.763L55.2832 159.329L62.0135 145.927H61.9937Z" fill="#05C960"/>
<path d="M52.8163 140.302C52.8163 140.302 53.8032 140.973 54.7703 141.684C55.244 142.059 55.7769 142.316 56.1519 142.572C56.5269 142.809 56.7835 142.967 56.7835 142.967L48.79 155.658C48.79 155.658 48.4743 155.46 48.0203 155.164C47.5664 154.848 46.915 154.513 46.3229 154.059C45.1387 153.191 43.915 152.342 43.915 152.342L52.8558 140.283L52.8163 140.302Z" fill="#05C960"/>
<path d="M47.6449 136.04C47.6449 136.04 47.8423 136.276 48.1976 136.553C48.5331 136.849 48.987 137.244 49.441 137.619C49.8949 138.013 50.3291 138.428 50.7041 138.684C51.0594 138.961 51.2963 139.138 51.2963 139.138L42.0002 150.921C42.0002 150.921 41.7041 150.684 41.2699 150.349C40.816 150.033 40.2633 149.54 39.7107 149.046C39.1581 148.572 38.5857 148.079 38.1712 147.724C37.737 147.368 37.4805 147.092 37.4805 147.092L47.6449 136.059V136.04Z" fill="#05C960"/>
<path d="M38.823 125.954C38.823 125.954 39.0006 126.191 39.2572 126.566C39.5138 126.941 39.8296 127.435 40.2243 127.889C40.9743 128.816 41.6848 129.783 41.6848 129.783L30.119 139.336C30.119 139.336 29.2111 138.171 28.3032 137.007C27.8098 136.435 27.4151 135.823 27.0993 135.369C26.7835 134.915 26.5664 134.619 26.5664 134.619L38.823 125.974V125.954Z" fill="#05C960"/>
<path d="M35.2703 120.329C35.2703 120.329 35.8822 121.355 36.4348 122.401C37.1058 123.388 37.7374 124.395 37.7374 124.395L25.2243 132.665L23.6256 130.178C22.915 128.875 22.165 127.612 22.165 127.612L35.2703 120.329Z" fill="#05C960"/>
<path d="M32.349 114.368C32.349 114.368 32.8621 115.434 33.3358 116.52C33.5529 117.072 33.849 117.586 34.0464 117.98C34.2437 118.375 34.3819 118.632 34.3819 118.632L21.0595 125.52C21.0595 125.52 20.8819 125.184 20.6451 124.711C20.3885 124.217 20.0332 123.585 19.7569 122.895C19.1648 121.553 18.5332 120.21 18.5332 120.21L32.349 114.368Z" fill="#05C960"/>
<path d="M29.0918 104.204C29.0918 104.204 29.151 104.5 29.2497 104.934C29.3286 105.369 29.4668 105.941 29.6444 106.513C29.8023 107.086 29.9602 107.658 30.0786 108.073C30.1971 108.507 30.276 108.783 30.276 108.783L15.9668 113.263C15.9668 113.263 15.8681 112.908 15.7102 112.375C15.5523 111.842 15.3549 111.132 15.1576 110.441C14.9207 109.75 14.7628 109.02 14.6641 108.487C14.5457 107.954 14.4668 107.599 14.4668 107.599L29.0918 104.224V104.204Z" fill="#05C960"/>
<path d="M27.9482 97.6711C27.9482 97.6711 27.9877 97.9672 28.0469 98.4014C28.1258 98.8356 28.1258 99.4474 28.264 100.02C28.5008 101.184 28.6784 102.349 28.6784 102.349L13.9548 105.27C13.9548 105.27 13.7179 103.809 13.4416 102.368C13.2837 101.658 13.264 100.908 13.1653 100.355C13.0863 99.8027 13.0469 99.4474 13.0469 99.4474L27.9482 97.6514V97.6711Z" fill="#05C960"/>
<path d="M27.4931 90.9414C27.4931 90.9414 27.5326 92.1453 27.5326 93.369C27.651 94.573 27.73 95.7572 27.73 95.7572L12.7892 97.0993C12.7892 97.0993 12.6905 95.619 12.5524 94.1388C12.5129 92.6388 12.4932 91.1585 12.4932 91.1585L27.4931 90.9611V90.9414Z" fill="#05C960"/>
<path d="M27.7497 84.1917C27.7497 84.1917 27.6905 85.3956 27.5524 86.5798C27.5326 87.7838 27.4931 89.0074 27.4931 89.0074L12.4932 88.7706C12.4932 88.7706 12.5326 87.2706 12.5721 85.7904C12.7103 84.3101 12.809 82.8298 12.809 82.8298L27.7497 84.2114V84.1917Z" fill="#05C960"/>
<path d="M28.6978 77.5989C28.6978 77.5989 28.5201 78.7634 28.2833 79.9279C28.1451 80.5002 28.1254 81.1121 28.0662 81.5463C28.007 81.9805 27.9675 82.2766 27.9675 82.2766L13.0859 80.441C13.0859 80.441 13.1254 80.066 13.2044 79.5331C13.2833 78.9805 13.3228 78.2502 13.4807 77.52C13.757 76.0792 13.9938 74.6187 13.9938 74.6187L28.6978 77.5792V77.5989Z" fill="#05C960"/>
<path d="M30.3563 71.184C30.3563 71.184 30.2379 71.4603 30.1392 71.8946C30.0208 72.3288 29.8629 72.8814 29.705 73.4538C29.5273 74.0262 29.3694 74.5788 29.2905 75.013C29.1918 75.4472 29.1326 75.7432 29.1326 75.7432L14.5273 72.3288C14.5273 72.3288 14.6063 71.9735 14.7247 71.4406C14.8234 70.888 15.0208 70.1972 15.2379 69.4867C15.4352 68.7761 15.6326 68.0656 15.7905 67.5525C15.9287 67.0196 16.0471 66.6643 16.0471 66.6643L30.3563 71.184Z" fill="#05C960"/>
<path d="M34.461 61.3356C34.461 61.3356 34.3228 61.5921 34.1255 61.9868C33.9281 62.3816 33.5926 62.8948 33.3952 63.4474C32.9413 64.5329 32.4084 65.5987 32.4084 65.5987L18.6123 59.7171C18.6123 59.7171 19.2439 58.3948 19.836 57.0329C20.1123 56.3421 20.507 55.7105 20.7439 55.2171C21.0005 54.7237 21.1584 54.3882 21.1584 54.3882L34.461 61.3158V61.3356Z" fill="#05C960"/>
<path d="M37.8358 55.5924C37.8358 55.5924 37.2043 56.6188 36.553 57.6056C35.9609 58.6319 35.3687 59.678 35.3687 59.678L22.2832 52.3556C22.2832 52.3556 23.0135 51.0727 23.7635 49.7898C24.5924 48.5661 25.3622 47.303 25.3622 47.303L37.8556 55.6122L37.8358 55.5924Z" fill="#05C960"/>
<path d="M41.8227 50.2037C41.8227 50.2037 41.7635 50.2629 41.6845 50.3616C41.6056 50.4603 41.4872 50.6182 41.349 50.7958L40.3425 52.0984C39.9477 52.5524 39.6122 53.0458 39.3556 53.4208C39.099 53.7958 38.9214 54.0326 38.9214 54.0326L26.6846 45.3485C26.6846 45.3485 26.9017 45.0524 27.2174 44.5984C27.5332 44.1445 27.9477 43.5326 28.4411 42.9603C28.8951 42.3682 29.349 41.7958 29.7043 41.3616C29.8819 41.1445 30.0201 40.9471 30.1188 40.8287C30.2174 40.7103 30.2964 40.6313 30.2964 40.6313L41.8424 50.2037H41.8227Z" fill="#05C960"/>
<path d="M46.382 45.29C46.382 45.29 46.1649 45.4874 45.8293 45.8032C45.5136 46.1387 45.1188 46.5729 44.7043 47.0071C44.2899 47.4413 43.8557 47.8558 43.5596 48.1913C43.2636 48.5269 43.0859 48.7637 43.0859 48.7637L31.8359 38.8361C31.8359 38.8361 32.0728 38.5597 32.428 38.1255C32.803 37.7111 33.3359 37.1979 33.8293 36.6453C34.3425 36.1124 34.8557 35.5597 35.2307 35.165C35.6451 34.79 35.9017 34.5334 35.9017 34.5334L46.3622 45.29H46.382Z" fill="#05C960"/>
<path d="M51.4345 40.8885C51.4345 40.8885 51.1977 41.0662 50.8424 41.3425C50.6648 41.4806 50.4477 41.6385 50.2306 41.7964C50.0134 41.9938 49.7963 42.1912 49.5792 42.3885C49.1253 42.7833 48.6714 43.178 48.3358 43.4543C47.9806 43.7306 47.7832 43.9477 47.7832 43.9477L37.6582 32.8754C37.6582 32.8754 37.9148 32.6188 38.349 32.2635C38.7634 31.9083 39.3358 31.4148 39.8885 30.9412C40.1648 30.7043 40.4411 30.4477 40.6977 30.2109C40.974 29.9938 41.2306 29.7964 41.4477 29.6385C41.8819 29.303 42.1779 29.0662 42.1779 29.0662L51.4345 40.8688V40.8885Z" fill="#05C960"/>
<path d="M56.9016 37.0401C56.9016 37.0401 55.895 37.6914 54.8885 38.323C53.9411 39.0335 52.9345 39.7045 52.9345 39.7045L44.0332 27.6256C44.0332 27.6256 45.2569 26.7769 46.4411 25.9085C47.6845 25.119 48.9279 24.3098 48.9279 24.3098L56.8819 37.0203L56.9016 37.0401Z" fill="#05C960"/>
<path d="M66.4543 32.1642C66.4543 32.1642 66.178 32.2629 65.7636 32.4208C65.3491 32.5984 64.8359 32.855 64.2833 33.0918C63.7504 33.3287 63.1978 33.5655 62.803 33.7432C62.4083 33.9603 62.1517 34.0984 62.1517 34.0984L55.4609 20.6774C55.4609 20.6774 55.7964 20.4997 56.2701 20.2432C56.7833 20.0261 57.4543 19.7103 58.1254 19.4142C58.7964 19.1182 59.4478 18.7826 59.9609 18.5853L60.8096 18.2498L66.4543 32.1445V32.1642Z" fill="#05C960"/>
<path d="M72.6908 30.0136C72.6908 30.0136 72.4145 30.0925 71.9803 30.2109C71.5461 30.3096 70.9934 30.4873 70.4408 30.7044C69.8882 30.882 69.3158 31.0793 68.9013 31.2175C68.4671 31.3359 68.2105 31.4544 68.2105 31.4544L63 17.382C63 17.382 63.3355 17.2241 63.8684 17.0859C64.3816 16.9083 65.0921 16.6715 65.7829 16.4346C66.4737 16.1781 67.1645 15.9412 67.6974 15.8228L68.5855 15.5859L72.7105 30.0136H72.6908Z" fill="#05C960"/>
<path d="M79.1452 28.5324C79.1452 28.5324 78.8491 28.5917 78.4149 28.6706C77.9807 28.7693 77.3886 28.789 76.8162 28.9666C75.6715 29.2627 74.507 29.4995 74.507 29.4995L70.8359 14.9535C70.8359 14.9535 72.2767 14.6377 73.6978 14.3022C74.4083 14.1048 75.1386 14.0456 75.6912 13.9272C76.2438 13.8285 76.5991 13.7693 76.5991 13.7693L79.1452 28.5522V28.5324Z" fill="#05C960"/>
<path d="M85.7764 27.7437C85.7764 27.7437 84.5725 27.8424 83.3882 27.9213C82.204 28.099 81.0198 28.2371 81.0198 28.2371L78.9277 13.3753C78.9277 13.3753 80.3883 13.1977 81.8488 13.0003C83.329 12.9016 84.8093 12.7832 84.8093 12.7832L85.7764 27.7437Z" fill="#05C960"/>
<path d="M92.5657 27.6646C92.5657 27.6646 91.3617 27.6646 90.1381 27.5856C88.9341 27.6251 87.7104 27.6449 87.7104 27.6449L87.1973 12.6449C87.1973 12.6449 88.6973 12.6054 90.1775 12.5659C91.6775 12.6251 93.1578 12.6449 93.1578 12.6449L92.546 27.6251L92.5657 27.6646Z" fill="#05C960"/>
<path d="M99.238 28.276C99.238 28.276 98.0538 28.1575 96.8696 27.9799C96.2775 27.8615 95.6657 27.8812 95.2315 27.8418C94.7775 27.8023 94.4814 27.7825 94.4814 27.7825L95.5473 12.822C95.5473 12.822 95.9223 12.8417 96.4749 12.901C97.0275 12.9602 97.7775 12.9404 98.5078 13.0786C99.9683 13.2957 101.449 13.4536 101.449 13.4536L99.2578 28.2957L99.238 28.276Z" fill="#05C960"/>
<path d="M109.639 30.7636C109.639 30.7636 108.534 30.3294 107.389 30.0728C106.817 29.9149 106.264 29.7373 105.83 29.6189C105.613 29.54 105.435 29.5202 105.317 29.4808C105.198 29.461 105.119 29.4413 105.119 29.4413L108.731 14.8755C108.731 14.8755 108.83 14.8755 108.988 14.9347C109.145 14.9742 109.363 15.0136 109.639 15.0926C110.172 15.2505 110.882 15.4479 111.573 15.665C112.994 16.0202 114.376 16.5334 114.376 16.5334L109.659 30.7636H109.639Z" fill="#05C960"/>
<path d="M115.777 33.1908C115.777 33.1908 115.501 33.0723 115.106 32.875C114.711 32.6973 114.178 32.4211 113.606 32.2237C112.501 31.8092 111.415 31.3355 111.415 31.3355L116.566 17.2434C116.566 17.2434 117.928 17.8158 119.29 18.3289C119.981 18.5658 120.652 18.9013 121.145 19.1382C121.639 19.375 121.974 19.5132 121.974 19.5132L115.757 33.171L115.777 33.1908Z" fill="#05C960"/>
<path d="M121.677 36.2503C121.677 36.2503 120.631 35.6779 119.625 35.0463C118.559 34.5332 117.513 33.9806 117.513 33.9806L124.144 20.52C124.144 20.52 125.447 21.2108 126.769 21.8621L129.315 23.3424L121.657 36.2503H121.677Z" fill="#05C960"/>
<path d="M127.243 39.9409C127.243 39.9409 126.256 39.2699 125.289 38.5594C124.816 38.1844 124.302 37.9081 123.927 37.6515C123.552 37.4147 123.296 37.2567 123.296 37.2567L131.329 24.5857C131.329 24.5857 131.645 24.7831 132.099 25.0791C132.572 25.3752 133.204 25.7502 133.796 26.2041C135 27.0725 136.204 27.9212 136.204 27.9212L127.224 39.9409H127.243Z" fill="#05C960"/>
<path d="M132.375 44.2435C132.375 44.2435 132.177 44.0263 131.842 43.7303C131.506 43.4342 131.033 43.0593 130.579 42.6645C129.71 41.8356 128.743 41.1448 128.743 41.1448L138.079 29.4014C138.079 29.4014 139.263 30.2895 140.368 31.2961C140.941 31.7698 141.493 32.2632 141.927 32.6185C142.342 32.9935 142.598 33.25 142.598 33.25L132.394 44.2435H132.375Z" fill="#05C960"/>
<path d="M137.033 49.0785C137.033 49.0785 136.836 48.8417 136.54 48.5061C136.263 48.1509 135.829 47.7364 135.415 47.3022C135 46.868 134.586 46.4338 134.29 46.0982C134.152 45.9206 134.013 45.8022 133.915 45.7035C133.816 45.6245 133.757 45.5653 133.757 45.5653L144.296 34.8877C144.296 34.8877 144.356 34.9469 144.474 35.0653C144.592 35.164 144.77 35.3416 144.948 35.539C145.323 35.9338 145.836 36.4864 146.349 37.0193C146.862 37.5522 147.395 38.0653 147.731 38.5193C148.086 38.9337 148.342 39.2298 148.342 39.2298L137.033 49.0785Z" fill="#05C960"/>
<path d="M143.449 57.7835C143.449 57.7835 143.291 57.5269 143.034 57.1519C142.797 56.7769 142.462 56.2835 142.146 55.7704C141.85 55.2572 141.495 54.7835 141.218 54.4085C140.962 54.0532 140.784 53.7967 140.784 53.7967L152.982 45.073C152.982 45.073 153.199 45.3691 153.514 45.823C153.85 46.277 154.284 46.869 154.659 47.5006C155.468 48.744 156.258 49.9875 156.258 49.9875L143.429 57.7638L143.449 57.7835Z" fill="#05C960"/>
<path d="M146.546 63.6454C146.546 63.6454 146.428 63.369 146.25 62.9743C146.033 62.5795 145.757 62.0467 145.48 61.5335C144.987 60.448 144.355 59.4414 144.355 59.4414L157.421 52.0598C157.421 52.0598 158.191 53.323 158.823 54.6454C159.158 55.2967 159.513 55.948 159.75 56.4414C159.967 56.9546 160.125 57.2901 160.125 57.2901L146.546 63.6454Z" fill="#05C960"/>
<path d="M149.033 69.7835C149.033 69.7835 148.934 69.5071 148.796 69.0729C148.678 68.6387 148.441 68.1058 148.224 67.5532C148.007 67.0006 147.79 66.4479 147.632 66.0335C147.553 65.8163 147.494 65.6585 147.434 65.54C147.375 65.4216 147.355 65.3624 147.355 65.3624L161.132 59.4216C161.132 59.4216 161.171 59.5006 161.23 59.6585C161.309 59.7966 161.388 60.0137 161.487 60.2703C161.684 60.7835 161.961 61.4742 162.217 62.1453C162.494 62.8361 162.79 63.5071 162.928 64.04C163.105 64.5532 163.224 64.9085 163.224 64.9085L149.033 69.7835Z" fill="#05C960"/>
<path d="M150.829 76.1387C150.829 76.1387 150.77 75.8427 150.671 75.4282C150.572 74.994 150.473 74.4019 150.276 73.8492C149.921 72.7242 149.645 71.5795 149.645 71.5795L163.973 67.1584C163.973 67.1584 164.348 68.5795 164.763 69.9808C165 70.6716 165.118 71.4019 165.256 71.9348L165.454 72.8229L150.829 76.1387Z" fill="#05C960"/>
<path d="M151.954 82.6908C151.954 82.6908 151.816 81.5066 151.658 80.3224C151.421 79.1579 151.224 77.9934 151.224 77.9934L165.947 75.1316C165.947 75.1316 166.184 76.5921 166.48 78.0329C166.658 79.4934 166.855 80.9737 166.855 80.9737L151.954 82.7105V82.6908Z" fill="#05C960"/>
<path d="M168.888 105.507C168.888 105.507 169.046 104.579 169.302 103.158C169.46 102.467 169.539 101.619 169.638 100.731C169.737 99.8424 169.914 98.895 169.973 97.9476C170.072 96.0332 170.329 94.1384 170.289 92.6779C170.329 91.2371 170.368 90.27 170.368 90.27H180C180 90.27 179.96 91.3753 179.921 92.9937C179.96 94.6121 179.684 96.7437 179.566 98.895C179.487 99.9608 179.289 101.007 179.191 102.013C179.072 103 178.973 103.948 178.796 104.717C178.519 106.296 178.322 107.342 178.322 107.342L168.868 105.507H168.888Z" fill="#05C960"/>
<path d="M161.23 127.316C161.23 127.316 161.664 126.468 162.315 125.205C162.651 124.573 162.947 123.783 163.322 122.994C163.677 122.185 164.111 121.336 164.427 120.428C164.783 119.54 165.138 118.672 165.454 117.843C165.73 116.994 166.006 116.204 166.223 115.533C166.46 114.862 166.658 114.29 166.776 113.915C166.875 113.52 166.954 113.283 166.954 113.283L176.171 116.047C176.171 116.047 176.092 116.303 175.973 116.757C175.815 117.191 175.598 117.823 175.342 118.573C175.085 119.323 174.789 120.211 174.473 121.158C174.098 122.086 173.704 123.073 173.309 124.06C172.954 125.066 172.48 126.014 172.065 126.922C171.651 127.829 171.296 128.698 170.94 129.408C170.21 130.829 169.717 131.777 169.717 131.777L161.19 127.316H161.23Z" fill="#05C960"/>
<path d="M147.553 146.144C147.553 146.144 148.224 145.453 149.211 144.407C149.724 143.894 150.217 143.223 150.829 142.552C151.421 141.861 152.072 141.171 152.645 140.401C153.237 139.651 153.829 138.901 154.382 138.19C154.895 137.46 155.388 136.769 155.803 136.197C156.671 135.052 157.145 134.223 157.145 134.223L165.178 139.513C165.178 139.513 164.625 140.421 163.658 141.723C163.204 142.374 162.651 143.144 162.079 143.953C161.447 144.743 160.796 145.572 160.125 146.421C159.494 147.289 158.763 148.078 158.112 148.828C157.441 149.578 156.869 150.328 156.296 150.901C155.191 152.065 154.441 152.835 154.441 152.835L147.553 146.124V146.144Z" fill="#05C960"/>
<path d="M129.099 160.315C129.099 160.315 129.928 159.842 131.171 159.131C131.803 158.796 132.474 158.282 133.243 157.829C133.993 157.335 134.822 156.881 135.592 156.289C136.382 155.736 137.151 155.184 137.882 154.671C138.592 154.118 139.243 153.605 139.816 153.151C140.388 152.717 140.862 152.342 141.178 152.085C141.493 151.809 141.671 151.651 141.671 151.651L147.868 159.013C147.868 159.013 147.671 159.19 147.316 159.506C146.941 159.802 146.428 160.197 145.796 160.71C145.164 161.203 144.434 161.776 143.645 162.407C142.835 162.98 141.947 163.611 141.079 164.223C140.23 164.875 139.303 165.407 138.454 165.96C137.605 166.493 136.855 167.046 136.145 167.421C134.763 168.21 133.835 168.743 133.835 168.743L129.138 160.335L129.099 160.315Z" fill="#05C960"/>
<path d="M107.488 168.565C107.488 168.565 108.415 168.348 109.797 168.033C110.488 167.875 111.277 167.598 112.146 167.362C112.994 167.125 113.922 166.908 114.81 166.552C115.718 166.256 116.606 165.96 117.455 165.664C118.284 165.329 119.054 165.033 119.725 164.756C120.396 164.5 120.948 164.283 121.323 164.125C121.698 163.947 121.915 163.848 121.915 163.848L125.744 172.671C125.744 172.671 125.507 172.789 125.073 172.987C124.639 173.164 124.027 173.401 123.277 173.697C122.527 173.993 121.678 174.329 120.731 174.704C119.784 175.019 118.777 175.355 117.771 175.69C116.784 176.065 115.738 176.322 114.771 176.598C113.803 176.855 112.915 177.151 112.146 177.329C110.586 177.684 109.54 177.921 109.54 177.921L107.448 168.526L107.488 168.565Z" fill="#05C960"/>
<path d="M84.2367 170.263C84.2367 170.263 84.4735 170.283 84.888 170.322C85.3025 170.362 85.8946 170.421 86.6248 170.401C88.0656 170.401 89.9998 170.54 91.9341 170.421C93.8683 170.421 95.7827 170.224 97.2038 170.145C97.9143 170.105 98.5261 170.046 98.9209 169.987C99.3353 169.928 99.5722 169.908 99.5722 169.908L100.717 179.461C100.717 179.461 100.46 179.5 99.9867 179.559C99.5327 179.638 98.8617 179.697 98.0525 179.737C96.4538 179.855 94.3222 180.072 92.1512 180.053C89.9998 180.171 87.8485 180.053 86.2301 180.013C85.4209 180.013 84.7498 179.954 84.2762 179.915C83.8025 179.875 83.5459 179.855 83.5459 179.855L84.2169 170.263H84.2367Z" fill="#05C960"/>
<path d="M61.5996 165.368C61.5996 165.368 61.8167 165.467 62.2115 165.625C62.6062 165.763 63.1786 165.941 63.8496 166.158C64.5207 166.394 65.3101 166.651 66.1588 166.947C67.0075 167.184 67.9351 167.441 68.843 167.697C69.7509 167.993 70.6785 168.171 71.547 168.368C72.4154 168.566 73.2246 168.783 73.9154 168.921C75.3167 169.158 76.2641 169.335 76.2641 169.335L74.6457 178.829C74.6457 178.829 73.5996 178.651 72.0207 178.375C71.2312 178.217 70.343 177.98 69.3562 177.763C68.3891 177.526 67.343 177.348 66.3167 177.013C65.2904 176.717 64.2641 176.441 63.3167 176.164C62.3693 175.848 61.4812 175.552 60.7312 175.296C59.9812 175.039 59.3496 174.842 58.8957 174.684C58.4614 174.506 58.2246 174.408 58.2246 174.408L61.6193 165.408L61.5996 165.368Z" fill="#05C960"/>
<path d="M41.3097 154.138C41.3097 154.138 41.4873 154.296 41.8228 154.552C42.1584 154.789 42.6518 155.125 43.2439 155.539C43.836 155.953 44.4873 156.467 45.2373 156.96C45.9873 157.434 46.7965 157.947 47.6057 158.46C48.3952 159.013 49.2636 159.427 50.0136 159.881C50.8031 160.315 51.4939 160.789 52.1452 161.085C53.4084 161.736 54.2571 162.171 54.2571 162.171L49.9742 170.796C49.9742 170.796 49.0268 170.302 47.6057 169.592C46.8755 169.256 46.1057 168.743 45.2176 168.25C44.3689 167.736 43.4018 167.263 42.5136 166.651C41.6057 166.078 40.7176 165.506 39.8689 164.953C39.0399 164.401 38.29 163.828 37.6386 163.375C36.9873 162.921 36.4347 162.526 36.0597 162.269C35.6847 161.973 35.4873 161.815 35.4873 161.815L41.3097 154.157V154.138Z" fill="#05C960"/>
<path d="M24.9868 137.5C24.9868 137.5 25.125 137.697 25.3618 138.033C25.6184 138.368 25.9934 138.822 26.4473 139.394C26.8816 139.967 27.4145 140.618 27.9671 141.329C28.5592 142 29.1908 142.73 29.8224 143.441C30.4145 144.191 31.125 144.842 31.7368 145.493C32.3684 146.125 32.9013 146.776 33.4342 147.25C34.4802 148.237 35.171 148.908 35.171 148.908L28.6184 155.954C28.6184 155.954 27.8487 155.223 26.6842 154.098C26.0724 153.566 25.4803 152.835 24.7697 152.125C24.0789 151.394 23.3092 150.664 22.6381 149.816C21.9276 149.006 21.2368 148.197 20.5658 147.447C19.9539 146.658 19.3618 145.927 18.8684 145.296C18.375 144.664 17.9408 144.151 17.6645 143.776C17.3881 143.401 17.25 143.164 17.25 143.164L25.0066 137.48L24.9868 137.5Z" fill="#05C960"/>
<path d="M14.1317 117.033C14.1317 117.033 14.2106 117.251 14.329 117.645C14.4869 118.04 14.704 118.573 14.9804 119.244C15.2369 119.915 15.5527 120.685 15.8685 121.514C16.2435 122.323 16.6383 123.191 17.033 124.06C17.3883 124.948 17.8817 125.777 18.2764 126.566C18.6909 127.356 19.0264 128.126 19.4014 128.737C20.1119 129.981 20.5856 130.81 20.5856 130.81L12.2961 135.705L10.9541 133.395C10.5396 132.705 10.1646 131.856 9.6909 130.968C9.23695 130.08 8.70407 129.152 8.30933 128.165C7.87512 127.198 7.42116 126.231 7.00669 125.323C6.63169 124.395 6.29615 123.527 6.00009 122.777C5.70404 122.027 5.4672 121.415 5.28957 120.981C5.15141 120.547 5.05273 120.29 5.05273 120.29L14.1119 117.073L14.1317 117.033Z" fill="#05C960"/>
<path d="M9.5921 94.2959C9.5921 94.2959 9.67106 95.2432 9.78948 96.684C9.82896 98.1248 10.1447 100.02 10.3618 101.914C10.4803 102.862 10.6974 103.789 10.8355 104.677C10.9934 105.546 11.0921 106.375 11.2895 107.066C11.6053 108.447 11.8224 109.375 11.8224 109.375L2.48683 111.664C2.48683 111.664 2.25001 110.618 1.89475 109.079C1.67764 108.309 1.5592 107.381 1.38157 106.395C1.22368 105.408 0.96709 104.362 0.848669 103.316C0.611827 101.184 0.25658 99.0722 0.217106 97.4735C0.0789485 95.8748 0 94.809 0 94.809L9.61183 94.3156L9.5921 94.2959Z" fill="#05C960"/>
<path d="M11.7632 71.0852C11.7632 71.0852 11.5461 72.0128 11.2303 73.3944C11.0526 74.0852 10.9737 74.9141 10.7961 75.7825C10.6579 76.6707 10.4211 77.5786 10.3421 78.5457C10.2237 79.493 10.1053 80.4404 9.98683 81.3286C9.86841 82.2167 9.86843 83.0654 9.78948 83.776C9.73027 84.4865 9.67105 85.0983 9.65131 85.5128C9.61184 85.9273 9.61183 86.1641 9.61183 86.1641L0 85.7102C0 85.7102 8.43337e-06 85.4338 0.0394821 84.9799C0.0789558 84.5062 0.13817 83.8352 0.19738 83.0457C0.276328 82.2365 0.296066 81.3089 0.414487 80.3023C0.532908 79.3154 0.67106 78.2496 0.809217 77.1839C0.907902 76.1181 1.16447 75.072 1.32236 74.0852C1.51973 73.0983 1.61842 72.1707 1.81578 71.4009C2.17105 69.8417 2.42762 68.8154 2.42762 68.8154L11.7829 71.0654L11.7632 71.0852Z" fill="#05C960"/>
<path d="M20.3885 49.6315L19.1846 51.6841C18.8688 52.3157 18.4938 53.0657 18.0793 53.8552C17.8819 54.2499 17.6648 54.6644 17.4477 55.0788C17.2503 55.4933 17.0727 55.9473 16.8754 56.3815C16.4806 57.2499 16.0859 58.1183 15.7306 58.9275C15.4148 59.7565 15.099 60.5262 14.8425 61.1973C14.2701 62.4999 14.0135 63.4275 14.0135 63.4275L4.93457 60.2499C4.93457 60.2499 5.23063 59.2236 5.8622 57.763C6.15826 57.013 6.49378 56.1446 6.84905 55.217C7.26352 54.3091 7.69772 53.342 8.13193 52.3749C8.34903 51.8815 8.5464 51.3881 8.78325 50.9341C9.02009 50.4604 9.25693 50.0065 9.49377 49.5723C9.94772 48.6841 10.3622 47.8552 10.7372 47.1447C11.5464 45.7631 12.0793 44.8354 12.0793 44.8354L20.3885 49.6907V49.6315Z" fill="#05C960"/>
<path d="M34.8954 31.4349C34.8954 31.4349 34.2047 32.0863 33.1586 33.0731C32.6652 33.5863 32.0928 34.1981 31.4612 34.8494C30.8297 35.481 30.1586 36.1718 29.5665 36.9218C28.9349 37.652 28.3034 38.3626 27.731 39.0534C27.1784 39.7639 26.6652 40.4152 26.231 40.9876C25.777 41.5599 25.402 42.0139 25.1652 42.3692C24.9283 42.7047 24.7902 42.902 24.7902 42.902L16.9941 37.2573C16.9941 37.2573 17.152 37.0402 17.4086 36.6455C17.6652 36.2507 18.0994 35.7376 18.5928 35.106C19.0862 34.4744 19.6586 33.7442 20.2902 32.935C20.9415 32.185 21.652 31.3757 22.3428 30.5468C23.0139 29.7179 23.7639 28.9481 24.4744 28.2178C25.1652 27.4876 25.8165 26.8165 26.3691 26.2244C27.5336 25.1192 28.3231 24.3889 28.3231 24.3889L34.9152 31.3955L34.8954 31.4349Z" fill="#05C960"/>
<path d="M53.9613 18.1118C53.9613 18.1118 53.1126 18.546 51.8297 19.1973C51.1982 19.5329 50.4876 19.9868 49.7179 20.421C48.9482 20.8552 48.0995 21.3092 47.31 21.8618C46.5008 22.375 45.6916 22.8881 44.9416 23.3618C44.2113 23.8947 43.5403 24.3684 42.9482 24.7829C41.764 25.5723 41.0337 26.2039 41.0337 26.2039L35.1719 18.5657C35.1719 18.5657 35.9811 17.875 37.3232 16.9671C37.9745 16.4934 38.7442 15.9605 39.5534 15.3684C40.4021 14.8355 41.2903 14.2631 42.1982 13.671C43.0863 13.0592 44.014 12.546 44.8824 12.0526C45.7508 11.5592 46.5403 11.0658 47.2508 10.6908C48.6719 9.9605 49.6192 9.48682 49.6192 9.48682L53.9416 18.0921L53.9613 18.1118Z" fill="#05C960"/>
<path d="M75.909 10.8689C75.909 10.8689 74.9814 11.0268 73.5603 11.2834C72.8695 11.4413 72.0603 11.6386 71.1919 11.836C70.7577 11.9347 70.3037 12.0334 69.8498 12.1321C69.3959 12.2702 68.9419 12.3886 68.488 12.5268C67.5801 12.7834 66.6524 13.04 65.8037 13.2768C64.9551 13.5728 64.1853 13.8294 63.4945 14.0663C62.1327 14.4807 61.2643 14.8755 61.2643 14.8755L57.8301 5.87548C57.8301 5.87548 58.7972 5.44126 60.3367 4.96758C61.0867 4.711 61.9748 4.41495 62.9222 4.07942C63.8893 3.80311 64.8958 3.50707 65.9222 3.23076C66.4353 3.0926 66.9485 2.9347 67.4419 2.79654C67.9551 2.67812 68.4485 2.57944 68.9419 2.46102C69.909 2.22418 70.8169 2.0268 71.6064 1.82943C73.1853 1.55311 74.2314 1.37549 74.2314 1.37549L75.8893 10.8492L75.909 10.8689Z" fill="#05C960"/>
<path d="M99.2377 10.1579C99.2377 10.1579 98.2903 9.99998 96.8495 9.92103C96.139 9.86182 95.2903 9.8026 94.4021 9.72365C93.4942 9.66444 92.5271 9.68419 91.5798 9.64472C89.6455 9.50656 87.7311 9.7039 86.2706 9.68417C85.5403 9.68417 84.9482 9.78288 84.5337 9.80261C84.1192 9.84209 83.8824 9.86182 83.8824 9.86182L83.1719 0.269721C83.1719 0.269721 83.4482 0.249987 83.9021 0.210513C84.3758 0.210513 85.0271 0.0723298 85.8364 0.0920666C87.4548 0.0920666 89.6061 -0.0855432 91.7574 0.0526146C92.8232 0.0920883 93.9087 0.0723382 94.9153 0.131549C95.9219 0.210496 96.8495 0.289445 97.6587 0.348655C99.2771 0.427602 100.323 0.605244 100.323 0.605244L99.2377 10.1579Z" fill="#05C960"/>
<path d="M121.599 16.0791C121.599 16.0791 121.382 15.9607 121.007 15.8225C120.613 15.6646 120.06 15.4672 119.409 15.2107C118.738 14.9738 117.988 14.5988 117.139 14.3225C116.29 14.0462 115.402 13.7304 114.494 13.4344C113.606 13.0988 112.659 12.9212 111.83 12.6449C110.961 12.408 110.192 12.1317 109.481 11.9936C108.1 11.6778 107.172 11.4607 107.172 11.4607L109.224 2.06592C109.224 2.06592 110.271 2.30277 111.81 2.65803C112.599 2.79619 113.468 3.11198 114.435 3.36856C115.382 3.66461 116.428 3.88171 117.435 4.25671C118.442 4.59223 119.448 4.94752 120.396 5.26331C121.343 5.55936 122.192 5.97383 122.942 6.25015C123.692 6.5462 124.303 6.78302 124.738 6.94092C125.172 7.09881 125.409 7.23699 125.409 7.23699L121.619 16.0791H121.599Z" fill="#05C960"/>
<path d="M141.395 28.2375C141.395 28.2375 141.237 28.0599 140.882 27.823C140.546 27.5664 140.072 27.1915 139.52 26.7572C138.947 26.323 138.336 25.7506 137.586 25.2572C136.855 24.7441 136.086 24.1915 135.296 23.6388C134.526 23.0665 133.678 22.6125 132.947 22.1191C132.197 21.6257 131.507 21.152 130.875 20.8362C129.632 20.1257 128.803 19.652 128.803 19.652L133.461 11.2244C133.461 11.2244 134.388 11.7573 135.77 12.5467C136.48 12.9217 137.25 13.4349 138.099 13.9875C138.928 14.5401 139.875 15.073 140.724 15.7046C141.592 16.3164 142.461 16.948 143.29 17.5204C144.119 18.073 144.809 18.7243 145.461 19.198C146.092 19.6915 146.625 20.1059 147 20.3823C147.375 20.6586 147.572 20.8559 147.572 20.8559L141.415 28.2375H141.395Z" fill="#05C960"/>
<path d="M156.947 45.566C156.947 45.566 156.829 45.3488 156.592 45.0133C156.355 44.6778 156 44.1844 155.585 43.612C155.151 43.0396 154.717 42.3291 154.164 41.6186C153.611 40.9081 153.019 40.1581 152.427 39.4081C151.855 38.6383 151.164 37.9673 150.611 37.2765C150.019 36.6054 149.506 35.9344 148.973 35.4409C147.986 34.3949 147.315 33.7041 147.315 33.7041L154.184 26.9541C154.184 26.9541 154.914 27.7239 156.039 28.8883C156.611 29.441 157.204 30.191 157.855 30.941C158.486 31.7107 159.256 32.4804 159.888 33.3291C160.559 34.1778 161.21 35.0068 161.842 35.7962C162.473 36.5857 162.967 37.3752 163.44 38.0265C163.914 38.6778 164.309 39.2107 164.565 39.6054C164.822 40.0002 164.96 40.2173 164.96 40.2173L156.947 45.5462V45.566Z" fill="#05C960"/>
<path d="M166.875 66.5068C166.875 66.5068 166.836 66.27 166.678 65.8752C166.54 65.4805 166.342 64.9279 166.105 64.2568C165.869 63.5858 165.651 62.7766 165.316 61.9674C164.98 61.1384 164.645 60.2503 164.29 59.3818C163.974 58.4937 163.5 57.645 163.165 56.8358C162.79 56.0266 162.493 55.2371 162.138 54.6252C161.487 53.3621 161.053 52.5134 161.053 52.5134L169.559 48.0134C169.559 48.0134 170.053 48.9608 170.783 50.3818C171.178 51.0726 171.513 51.9411 171.928 52.8489C172.322 53.7766 172.836 54.7042 173.191 55.7108C173.586 56.6976 173.98 57.6845 174.336 58.6121C174.711 59.5397 174.947 60.4476 175.224 61.1976C175.48 61.9476 175.697 62.5792 175.855 63.0134C176.013 63.4476 176.072 63.7042 176.072 63.7042L166.875 66.5068Z" fill="#05C960"/>
</g>
<path d="M80.9301 115.956C80.3535 116.536 79.5673 116.86 78.7502 116.86C77.9331 116.86 77.1468 116.536 76.5703 115.956L59.1618 98.5448C57.3549 96.7379 57.3549 93.8088 59.1618 92.005L61.3417 89.8251C63.1485 88.0183 66.0746 88.0183 67.8814 89.8251L78.7502 100.694L108.119 71.3251C109.926 69.5183 112.855 69.5183 114.659 71.3251L116.839 73.505C118.645 75.3118 118.645 78.241 116.839 80.0448L80.9301 115.956Z" fill="#07CF89"/>
</svg>
