<svg width="50" height="9" viewBox="0 0 50 9" fill="none" xmlns="http://www.w3.org/2000/svg">
<path d="M0.785559 8.83154V7.62006H7.45121C8.27604 7.62006 8.50805 7.3623 8.50805 6.69212V5.98586C8.50805 5.44456 8.19871 5.16103 7.56977 5.16103H2.79604C1.4196 5.16103 0.713379 4.5424 0.713379 3.54229V2.15038C0.713379 0.825495 1.17735 0.325439 3.09508 0.325439H9.62153V1.53691H3.4456C2.59499 1.53691 2.36302 1.80498 2.36302 2.46485V3.14534C2.36302 3.68664 2.67233 3.97017 3.32704 3.97017H8.06471C9.50817 3.97017 10.1629 4.61457 10.1629 5.71779V6.99113C10.1629 8.29024 9.61125 8.83154 7.84817 8.83154H0.795817H0.785559Z" fill="#FFCB05"/>
<path d="M13.885 8.83154V0.325439H22.984V1.53691H15.6481V3.99595H20.1125V5.14041H15.6481V7.62522H22.984V8.83669H13.885V8.83154Z" fill="#FFCB05"/>
<path d="M29.7167 8.83154C27.4639 8.83154 26.7061 8.47067 26.7061 6.80038V2.35659C26.7061 0.696615 27.4639 0.325439 29.7167 0.325439H35.7638V1.53691H30.1807C28.9073 1.53691 28.4692 1.79467 28.4692 2.72261V6.45499C28.4692 7.38292 28.9331 7.62522 30.1807 7.62522H35.7638V8.83669H29.7167V8.83154Z" fill="#FFCB05"/>
<path d="M39.9594 8.83154V7.62006H46.625C47.4499 7.62006 47.6819 7.3623 47.6819 6.69212V5.98586C47.6819 5.44456 47.3726 5.16103 46.7437 5.16103H41.9699C40.5935 5.16103 39.8872 4.5424 39.8872 3.54229V2.15038C39.8872 0.825495 40.3512 0.325439 42.2689 0.325439H48.7954V1.53691H42.6195C41.7689 1.53691 41.5368 1.80498 41.5368 2.46485V3.14534C41.5368 3.68664 41.8462 3.97017 42.5009 3.97017H47.2385C48.682 3.97017 49.3367 4.61457 49.3367 5.71779V6.99113C49.3367 8.29024 48.7851 8.83154 47.022 8.83154H39.9697H39.9594Z" fill="#FFCB05"/>
</svg>
