<svg width="32" height="32" viewBox="0 0 32 32" fill="none" xmlns="http://www.w3.org/2000/svg">
<rect x="0.5" y="0.5" width="31" height="31" rx="15.5" fill="white"/>
<rect x="0.5" y="0.5" width="31" height="31" rx="15.5" stroke="#F2F2F2"/>
<path d="M20.5754 20.5782H18.6503V17.5616C18.6503 16.8423 18.6358 15.9166 17.6472 15.9166C16.6435 15.9166 16.4902 16.6993 16.4902 17.5085V20.5782H14.5651V14.375H16.4143V15.2205H16.4393C16.6977 14.733 17.326 14.2185 18.2647 14.2185C20.2153 14.2185 20.576 15.5022 20.576 17.1733L20.5754 20.5782ZM12.3909 13.5262C11.7712 13.5262 11.2734 13.0246 11.2734 12.4077C11.2734 11.7912 11.7717 11.2902 12.3909 11.2902C13.0084 11.2902 13.5089 11.7912 13.5089 12.4077C13.5089 13.0246 13.0078 13.5262 12.3909 13.5262ZM13.3561 20.5782H11.4256V14.375H13.3561V20.5782ZM21.5385 9.5H10.4593C9.929 9.5 9.5 9.91925 9.5 10.4365V21.5635C9.5 22.0813 9.929 22.5 10.4593 22.5H21.5369C22.0667 22.5 22.5 22.0813 22.5 21.5635V10.4365C22.5 9.91925 22.0667 9.5 21.5369 9.5H21.5385Z" fill="black"/>
</svg>
