<svg width="32" height="32" viewBox="0 0 32 32" fill="none" xmlns="http://www.w3.org/2000/svg">
<rect width="32" height="32" fill="#A7A7A7"/>
<g id="Homepage">
<path d="M-2590 -579C-2590 -580.105 -2589.1 -581 -2588 -581H2466C2467.1 -581 2468 -580.105 2468 -579V4444C2468 4445.1 2467.1 4446 2466 4446H-2588C-2589.1 4446 -2590 4445.1 -2590 4444V-579Z" fill="#BDBDBD"/>
<path d="M-2588 -580H2466V-582H-2588V-580ZM2467 -579V4444H2469V-579H2467ZM2466 4445H-2588V4447H2466V4445ZM-2589 4444V-579H-2591V4444H-2589ZM-2588 4445C-2588.55 4445 -2589 4444.55 -2589 4444H-2591C-2591 4445.66 -2589.66 4447 -2588 4447V4445ZM2467 4444C2467 4444.55 2466.55 4445 2466 4445V4447C2467.66 4447 2469 4445.66 2469 4444H2467ZM2466 -580C2466.55 -580 2467 -579.552 2467 -579H2469C2469 -580.657 2467.66 -582 2466 -582V-580ZM-2588 -582C-2589.66 -582 -2591 -580.657 -2591 -579H-2589C-2589 -579.552 -2588.55 -580 -2588 -580V-582Z" fill="black" fill-opacity="0.1"/>
<g id="Homepage_2" clip-path="url(#clip0_3_2)">
<rect width="1440" height="4125" transform="translate(-1096 -110)" fill="white"/>
<g id="Group 1116601025">
<g id="Frame 1597882260">
<rect width="1440" height="56" transform="translate(-1096 -12)" fill="#FFCB05"/>
<g id="Frame 1597882263">
<g id="footer/Social media">
<rect x="0.5" y="0.5" width="31" height="31" rx="15.5" fill="white"/>
<rect x="0.5" y="0.5" width="31" height="31" rx="15.5" stroke="#F2F2F2"/>
<path id="Vector" d="M16.6702 9.50244C17.4018 9.50365 17.7725 9.50752 18.0928 9.51706L18.219 9.52118C18.3647 9.52636 18.5085 9.53286 18.6819 9.54099C19.3736 9.57295 19.8454 9.68237 20.2598 9.84325C20.6882 10.0085 21.0501 10.2316 21.4114 10.5929C21.7721 10.9542 21.9954 11.3172 22.1611 11.7446C22.3214 12.1584 22.4309 12.6308 22.4634 13.3225C22.4711 13.4958 22.4774 13.6396 22.4825 13.7854L22.4866 13.9115C22.4961 14.2318 22.5004 14.6026 22.5018 15.3342L22.5023 15.8188C22.5024 15.878 22.5024 15.9391 22.5024 16.0022L22.5023 16.1856L22.5019 16.6703C22.5007 17.4018 22.4969 17.7726 22.4873 18.0929L22.4831 18.219C22.478 18.3648 22.4715 18.5086 22.4634 18.6819C22.4314 19.3737 22.3214 19.8454 22.1611 20.2598C21.9959 20.6883 21.7721 21.0502 21.4114 21.4115C21.0501 21.7722 20.6866 21.9954 20.2598 22.1611C19.8454 22.3215 19.3736 22.4309 18.6819 22.4634C18.5085 22.4711 18.3647 22.4774 18.219 22.4825L18.0928 22.4866C17.7725 22.4962 17.4018 22.5005 16.6702 22.5019L16.1855 22.5024C16.1263 22.5024 16.0652 22.5024 16.0022 22.5024H15.8188L15.3341 22.502C14.6025 22.5008 14.2318 22.4969 13.9115 22.4873L13.7853 22.4832C13.6395 22.478 13.4958 22.4715 13.3224 22.4634C12.6307 22.4315 12.1594 22.3215 11.7445 22.1611C11.3166 21.996 10.9542 21.7722 10.5929 21.4115C10.2316 21.0502 10.0089 20.6867 9.84318 20.2598C9.6823 19.8454 9.57342 19.3737 9.54092 18.6819C9.5332 18.5086 9.5269 18.3648 9.5218 18.219L9.51771 18.0929C9.5082 17.7726 9.50387 17.4018 9.50246 16.6703L9.50238 15.3342C9.50359 14.6026 9.50745 14.2318 9.51699 13.9115L9.52112 13.7854C9.5263 13.6396 9.5328 13.4958 9.54092 13.3225C9.57288 12.6302 9.6823 12.159 9.84318 11.7446C10.0084 11.3166 10.2316 10.9542 10.5929 10.5929C10.9542 10.2316 11.3171 10.009 11.7445 9.84325C12.1589 9.68237 12.6302 9.57349 13.3224 9.54099C13.4958 9.53327 13.6395 9.52697 13.7853 9.52187L13.9115 9.51778C14.2318 9.50827 14.6025 9.50393 15.3341 9.50253L16.6702 9.50244ZM16.0022 12.7521C14.2062 12.7521 12.752 14.2078 12.752 16.0022C12.752 17.7981 14.2078 19.2523 16.0022 19.2523C17.7981 19.2523 19.2523 17.7966 19.2523 16.0022C19.2523 14.2063 17.7965 12.7521 16.0022 12.7521ZM16.0022 14.0521C17.0792 14.0521 17.9522 14.9249 17.9522 16.0022C17.9522 17.0792 17.0794 17.9523 16.0022 17.9523C14.9251 17.9523 14.0521 17.0795 14.0521 16.0022C14.0521 14.9252 14.9248 14.0521 16.0022 14.0521ZM19.4148 11.7771C18.9667 11.7771 18.6022 12.141 18.6022 12.589C18.6022 13.0371 18.9662 13.4016 19.4148 13.4016C19.8628 13.4016 20.2273 13.0376 20.2273 12.589C20.2273 12.141 19.8622 11.7765 19.4148 11.7771Z" fill="black"/>
</g>
</g>
</g>
</g>
</g>
</g>
<defs>
<clipPath id="clip0_3_2">
<rect width="1440" height="4125" fill="white" transform="translate(-1096 -110)"/>
</clipPath>
</defs>
</svg>
