<svg width="14" height="14" viewBox="0 0 14 14" fill="none" xmlns="http://www.w3.org/2000/svg">
<g clip-path="url(#clip0_275_8301)">
<path d="M7 0.5C3.40977 0.5 0.5 3.40977 0.5 7C0.5 10.5902 3.40977 13.5 7 13.5C10.5902 13.5 13.5 10.5902 13.5 7C13.5 3.40977 10.5902 0.5 7 0.5ZM8.43457 5.89805L8.36094 6.87051H7.36309V10.2475H6.10371V6.87051H5.43086V5.89805H6.10371V5.24551C6.10371 4.95859 6.11133 4.51426 6.31953 4.2375C6.54043 3.94551 6.84258 3.74746 7.36309 3.74746C8.21113 3.74746 8.5666 3.86934 8.5666 3.86934L8.39902 4.86465C8.39902 4.86465 8.11973 4.7834 7.8582 4.7834C7.59668 4.7834 7.36309 4.87734 7.36309 5.13887V5.89805H8.43457Z" fill="black"/>
</g>
<defs>
<clipPath id="clip0_275_8301">
<rect width="13" height="13" fill="white" transform="translate(0.5 0.5)"/>
</clipPath>
</defs>
</svg>
