<svg width="14" height="14" viewBox="0 0 14 14" fill="none" xmlns="http://www.w3.org/2000/svg">
<g clip-path="url(#clip0_275_8298)">
<path d="M7.15753 1.79761C7.50471 1.79952 8.37334 1.80792 9.29626 1.84488L9.62348 1.85915C10.5527 1.90315 11.4811 1.9783 11.9416 2.1067C12.5558 2.27925 13.0386 2.78273 13.2018 3.42094C13.4616 4.43439 13.4941 6.41243 13.4981 6.89111L13.4987 6.9903V6.99726C13.4987 6.99726 13.4987 6.99966 13.4987 7.00428L13.4981 7.10347C13.4941 7.58215 13.4616 9.56019 13.2018 10.5737C13.0363 11.2142 12.5536 11.7177 11.9416 11.8879C11.4811 12.0163 10.5527 12.0914 9.62348 12.1354L9.29626 12.1496C8.37334 12.1866 7.50471 12.195 7.15753 12.197L7.00516 12.1975H6.9984C6.9984 12.1975 6.99613 12.1975 6.99164 12.1975L6.83941 12.197C6.10461 12.1929 3.03233 12.1597 2.0552 11.8879C1.44098 11.7153 0.958214 11.2119 0.795024 10.5737C0.535227 9.56019 0.502752 7.58215 0.498695 7.10347V6.89111C0.502752 6.41243 0.535227 4.43439 0.795024 3.42094C0.960476 2.78036 1.44324 2.27689 2.0552 2.1067C3.03233 1.83481 6.10461 1.80165 6.83941 1.79761H7.15753ZM5.69835 4.72218V9.27236L9.59852 6.99726L5.69835 4.72218Z" fill="black"/>
</g>
<defs>
<clipPath id="clip0_275_8298">
<rect width="13" height="13" fill="white" transform="translate(0.5 0.5)"/>
</clipPath>
</defs>
</svg>
